<?xml version="1.0" encoding="UTF-8" standalone="no"?> <svg xmlns="http://www.w3.org/2000/svg" xmlns:xlink="http://www.w3.org/1999/xlink" xmlns:serif="http://www.serif.com/" width="100%" height="100%" viewBox="0 0 800 480" version="1.1" xml:space="preserve" style="fill-rule:evenodd;clip-rule:evenodd;stroke-linejoin:round;stroke-miterlimit:2;"><rect id="img-size-attributes-are-back" x="0" y="0" width="800" height="480" style="fill:#262626;"></rect><g transform="matrix(1,0,0,1,-420.081,34.6067)"><g transform="matrix(24,0,0,24,503.281,211.261)"><path d="M0.12,-0.363l0.373,-0.253l0,0.079l-0.301,0.203l0,0.004l0.301,0.203l0,0.079l-0.373,-0.253l0,-0.062Z" style="fill:#fff;fill-rule:nonzero;"></path></g><g transform="matrix(24,0,0,24,517.681,211.261)"><path d="M0.09,-0.486l0.308,0l0,0.486l-0.082,0l0,-0.419l-0.226,0l0,-0.067Zm0.258,-0.1c-0.019,0 -0.035,-0.006 -0.047,-0.017c-0.013,-0.011 -0.019,-0.027 -0.019,-0.046c0,-0.019 0.006,-0.035 0.019,-0.046c0.012,-0.012 0.028,-0.018 0.047,-0.018c0.019,0 0.034,0.006 0.047,0.018c0.013,0.011 0.019,0.027 0.019,0.046c0,0.019 -0.006,0.035 -0.019,0.046c-0.013,0.011 -0.028,0.017 -0.047,0.017Z" style="fill:#7cffcf;fill-rule:nonzero;"></path></g><g transform="matrix(24,0,0,24,532.081,211.261)"><path d="M0.06,-0.486l0.064,0l0.007,0.064l0.003,0c0.012,-0.023 0.026,-0.041 0.042,-0.055c0.017,-0.014 0.039,-0.021 0.067,-0.021c0.049,0 0.08,0.028 0.092,0.084c0.015,-0.025 0.031,-0.046 0.048,-0.061c0.017,-0.015 0.04,-0.023 0.067,-0.023c0.034,0 0.06,0.013 0.078,0.038c0.019,0.026 0.028,0.063 0.028,0.112l0,0.348l-0.079,0l0,-0.341c0,-0.057 -0.018,-0.086 -0.053,-0.086c-0.017,0 -0.032,0.006 -0.045,0.019c-0.013,0.012 -0.025,0.031 -0.038,0.056l0,0.352l-0.066,0l0,-0.341c0,-0.057 -0.018,-0.086 -0.055,-0.086c-0.017,0 -0.032,0.006 -0.044,0.019c-0.012,0.012 -0.024,0.031 -0.037,0.056l0,0.352l-0.079,0l0,-0.486Z" style="fill:#7cffcf;fill-rule:nonzero;"></path></g><g transform="matrix(24,0,0,24,546.481,211.261)"><path d="M0.143,0.081c0,0.025 0.013,0.046 0.04,0.062c0.027,0.016 0.067,0.024 0.119,0.024c0.028,0 0.053,-0.003 0.076,-0.009c0.023,-0.005 0.042,-0.013 0.058,-0.022c0.016,-0.009 0.028,-0.02 0.036,-0.032c0.009,-0.012 0.013,-0.024 0.013,-0.037c0,-0.023 -0.009,-0.039 -0.028,-0.047c-0.018,-0.008 -0.046,-0.012 -0.083,-0.012l-0.095,0c-0.014,0 -0.027,-0.001 -0.04,-0.002c-0.012,-0.001 -0.023,-0.003 -0.034,-0.006c-0.023,0.013 -0.04,0.026 -0.049,0.039c-0.009,0.014 -0.013,0.028 -0.013,0.042Zm-0.071,0.008c0,-0.019 0.007,-0.038 0.02,-0.057c0.014,-0.019 0.034,-0.036 0.06,-0.051l0,-0.004c-0.013,-0.007 -0.025,-0.017 -0.035,-0.03c-0.01,-0.013 -0.015,-0.029 -0.015,-0.05c0,-0.015 0.005,-0.031 0.015,-0.048c0.01,-0.016 0.024,-0.03 0.043,-0.043l0,-0.004c-0.017,-0.013 -0.031,-0.03 -0.043,-0.051c-0.011,-0.021 -0.017,-0.046 -0.017,-0.075c0,-0.027 0.005,-0.051 0.015,-0.072c0.011,-0.021 0.025,-0.039 0.042,-0.054c0.017,-0.016 0.037,-0.027 0.06,-0.035c0.023,-0.009 0.048,-0.013 0.074,-0.013c0.027,0 0.051,0.004 0.072,0.012l0.201,0l0,0.063l-0.13,0c0.011,0.012 0.022,0.027 0.031,0.044c0.009,0.017 0.014,0.037 0.014,0.058c0,0.026 -0.005,0.049 -0.015,0.07c-0.009,0.021 -0.023,0.038 -0.04,0.052c-0.017,0.015 -0.037,0.026 -0.06,0.034c-0.023,0.007 -0.047,0.011 -0.073,0.011c-0.013,0 -0.026,-0.002 -0.041,-0.005c-0.014,-0.003 -0.028,-0.007 -0.041,-0.013c-0.025,0.016 -0.038,0.035 -0.038,0.056c0,0.019 0.009,0.034 0.026,0.043c0.018,0.009 0.043,0.013 0.075,0.013l0.109,0c0.063,0 0.109,0.009 0.139,0.026c0.031,0.017 0.046,0.047 0.046,0.088c0,0.023 -0.006,0.044 -0.019,0.065c-0.013,0.021 -0.031,0.039 -0.054,0.054c-0.023,0.015 -0.052,0.028 -0.085,0.037c-0.033,0.009 -0.071,0.014 -0.112,0.014c-0.071,0 -0.127,-0.012 -0.166,-0.035c-0.039,-0.023 -0.058,-0.057 -0.058,-0.1Zm0.219,-0.298c0.031,0 0.058,-0.01 0.079,-0.031c0.022,-0.021 0.033,-0.049 0.033,-0.084c0,-0.017 -0.003,-0.032 -0.009,-0.046c-0.006,-0.014 -0.014,-0.026 -0.024,-0.036c-0.01,-0.01 -0.022,-0.018 -0.035,-0.023c-0.014,-0.006 -0.029,-0.009 -0.044,-0.009c-0.015,0 -0.03,0.003 -0.043,0.009c-0.014,0.005 -0.026,0.013 -0.036,0.023c-0.01,0.01 -0.018,0.022 -0.024,0.036c-0.006,0.014 -0.009,0.029 -0.009,0.046c0,0.035 0.011,0.063 0.033,0.084c0.022,0.021 0.048,0.031 0.079,0.031Z" style="fill:#7cffcf;fill-rule:nonzero;"></path></g><g transform="matrix(24,0,0,24,575.281,211.261)"><path d="M0.112,-0.118c0.027,0.02 0.057,0.036 0.088,0.048c0.031,0.012 0.069,0.018 0.113,0.018c0.044,0 0.077,-0.007 0.098,-0.022c0.021,-0.015 0.032,-0.033 0.032,-0.054c0,-0.019 -0.012,-0.035 -0.035,-0.05c-0.023,-0.015 -0.064,-0.029 -0.123,-0.044c-0.025,-0.006 -0.049,-0.013 -0.072,-0.022c-0.022,-0.009 -0.041,-0.019 -0.058,-0.031c-0.017,-0.011 -0.03,-0.024 -0.04,-0.038c-0.01,-0.014 -0.015,-0.03 -0.015,-0.047c0,-0.019 0.004,-0.038 0.013,-0.055c0.009,-0.017 0.021,-0.031 0.038,-0.044c0.017,-0.012 0.039,-0.022 0.064,-0.029c0.026,-0.007 0.056,-0.01 0.089,-0.01c0.037,0 0.072,0.006 0.107,0.018c0.035,0.013 0.064,0.027 0.088,0.044l-0.04,0.053c-0.021,-0.015 -0.045,-0.028 -0.071,-0.037c-0.026,-0.009 -0.054,-0.014 -0.084,-0.014c-0.023,0 -0.042,0.002 -0.057,0.005c-0.015,0.004 -0.028,0.009 -0.037,0.015c-0.009,0.007 -0.016,0.014 -0.02,0.023c-0.004,0.009 -0.006,0.018 -0.006,0.027c0,0.02 0.014,0.036 0.041,0.049c0.027,0.013 0.063,0.026 0.107,0.037c0.066,0.017 0.115,0.036 0.147,0.057c0.031,0.021 0.047,0.051 0.047,0.088c0,0.02 -0.005,0.039 -0.014,0.056c-0.009,0.017 -0.023,0.033 -0.041,0.046c-0.019,0.013 -0.042,0.024 -0.069,0.031c-0.027,0.008 -0.057,0.012 -0.092,0.012c-0.048,0 -0.092,-0.008 -0.133,-0.023c-0.04,-0.015 -0.075,-0.032 -0.105,-0.053l0.04,-0.054Z" style="fill:#db9fff;fill-rule:nonzero;"></path></g><g transform="matrix(24,0,0,24,589.681,211.261)"><path d="M0.146,-0.486l0.068,0l0.007,0.115l0.003,0c0.025,-0.039 0.057,-0.07 0.094,-0.093c0.036,-0.023 0.078,-0.034 0.123,-0.034c0.018,0 0.035,0.002 0.05,0.005c0.015,0.003 0.031,0.008 0.046,0.015l-0.019,0.071c-0.017,-0.006 -0.032,-0.01 -0.043,-0.013c-0.012,-0.003 -0.028,-0.004 -0.047,-0.004c-0.037,0 -0.072,0.011 -0.106,0.031c-0.033,0.022 -0.065,0.057 -0.094,0.108l0,0.285l-0.082,0l0,-0.486Z" style="fill:#db9fff;fill-rule:nonzero;"></path></g><g transform="matrix(24,0,0,24,604.081,211.261)"><path d="M0.08,-0.242c0,-0.041 0.007,-0.077 0.022,-0.109c0.014,-0.031 0.033,-0.058 0.058,-0.08c0.025,-0.022 0.054,-0.039 0.086,-0.05c0.034,-0.011 0.068,-0.017 0.105,-0.017c0.04,0 0.075,0.007 0.104,0.021c0.029,0.014 0.053,0.031 0.073,0.05l-0.041,0.053c-0.02,-0.017 -0.041,-0.031 -0.062,-0.041c-0.022,-0.01 -0.046,-0.015 -0.071,-0.015c-0.028,0 -0.054,0.005 -0.077,0.014c-0.023,0.008 -0.043,0.021 -0.059,0.038c-0.017,0.017 -0.03,0.037 -0.039,0.059c-0.009,0.023 -0.014,0.049 -0.014,0.077c0,0.028 0.005,0.053 0.014,0.076c0.009,0.023 0.021,0.042 0.038,0.058c0.016,0.017 0.036,0.029 0.059,0.038c0.023,0.009 0.048,0.014 0.076,0.014c0.03,0 0.058,-0.006 0.083,-0.018c0.025,-0.011 0.047,-0.026 0.068,-0.043l0.036,0.053c-0.027,0.024 -0.056,0.043 -0.089,0.056c-0.033,0.013 -0.068,0.02 -0.104,0.02c-0.038,0 -0.073,-0.006 -0.105,-0.017c-0.033,-0.011 -0.061,-0.028 -0.085,-0.05c-0.024,-0.021 -0.043,-0.048 -0.056,-0.08c-0.013,-0.031 -0.02,-0.067 -0.02,-0.107Z" style="fill:#db9fff;fill-rule:nonzero;"></path></g><g transform="matrix(24,0,0,24,618.481,211.261)"><path d="M0.085,-0.468l0.43,0l0,0.062l-0.43,0l0,-0.062Zm0,0.213l0.43,0l0,0.062l-0.43,0l0,-0.062Z" style="fill:#fff;fill-rule:nonzero;"></path></g><g transform="matrix(24,0,0,24,632.881,211.261)"><path d="M0.133,-0.577l-0.002,-0.11l0.11,0l-0.002,0.11l-0.025,0.225l-0.056,0l-0.025,-0.225Zm0.229,0l-0.002,-0.11l0.11,0l-0.002,0.11l-0.025,0.225l-0.056,0l-0.025,-0.225Z" style="fill:#9cceff;fill-rule:nonzero;"></path></g><g transform="matrix(24,0,0,24,647.281,211.261)"><path d="M0.08,-0.242c0,-0.041 0.007,-0.077 0.022,-0.109c0.014,-0.031 0.033,-0.058 0.058,-0.08c0.025,-0.022 0.054,-0.039 0.086,-0.05c0.034,-0.011 0.068,-0.017 0.105,-0.017c0.04,0 0.075,0.007 0.104,0.021c0.029,0.014 0.053,0.031 0.073,0.05l-0.041,0.053c-0.02,-0.017 -0.041,-0.031 -0.062,-0.041c-0.022,-0.01 -0.046,-0.015 -0.071,-0.015c-0.028,0 -0.054,0.005 -0.077,0.014c-0.023,0.008 -0.043,0.021 -0.059,0.038c-0.017,0.017 -0.03,0.037 -0.039,0.059c-0.009,0.023 -0.014,0.049 -0.014,0.077c0,0.028 0.005,0.053 0.014,0.076c0.009,0.023 0.021,0.042 0.038,0.058c0.016,0.017 0.036,0.029 0.059,0.038c0.023,0.009 0.048,0.014 0.076,0.014c0.03,0 0.058,-0.006 0.083,-0.018c0.025,-0.011 0.047,-0.026 0.068,-0.043l0.036,0.053c-0.027,0.024 -0.056,0.043 -0.089,0.056c-0.033,0.013 -0.068,0.02 -0.104,0.02c-0.038,0 -0.073,-0.006 -0.105,-0.017c-0.033,-0.011 -0.061,-0.028 -0.085,-0.05c-0.024,-0.021 -0.043,-0.048 -0.056,-0.08c-0.013,-0.031 -0.02,-0.067 -0.02,-0.107Z" style="fill:#9cceff;fill-rule:nonzero;"></path></g><g transform="matrix(24,0,0,24,661.681,211.261)"><path d="M0.081,-0.126c0,-0.027 0.007,-0.051 0.02,-0.072c0.012,-0.02 0.033,-0.037 0.062,-0.052c0.028,-0.015 0.064,-0.027 0.109,-0.036c0.045,-0.009 0.098,-0.017 0.161,-0.022c-0.001,-0.017 -0.003,-0.032 -0.008,-0.047c-0.005,-0.015 -0.012,-0.027 -0.022,-0.038c-0.01,-0.012 -0.023,-0.02 -0.04,-0.027c-0.016,-0.007 -0.036,-0.01 -0.059,-0.01c-0.032,0 -0.063,0.006 -0.092,0.019c-0.029,0.012 -0.055,0.025 -0.078,0.039l-0.032,-0.056c0.012,-0.008 0.026,-0.016 0.042,-0.024c0.017,-0.009 0.034,-0.016 0.052,-0.023c0.019,-0.007 0.038,-0.012 0.059,-0.016c0.021,-0.005 0.042,-0.007 0.063,-0.007c0.067,0 0.116,0.018 0.148,0.055c0.033,0.036 0.049,0.084 0.049,0.145l0,0.298l-0.067,0l-0.007,-0.066l-0.003,0c-0.027,0.021 -0.058,0.04 -0.091,0.055c-0.033,0.015 -0.066,0.023 -0.101,0.023c-0.023,0 -0.044,-0.003 -0.064,-0.009c-0.02,-0.007 -0.038,-0.016 -0.053,-0.027c-0.015,-0.012 -0.026,-0.026 -0.035,-0.043c-0.009,-0.017 -0.013,-0.037 -0.013,-0.059Zm0.08,-0.006c0,0.014 0.003,0.026 0.009,0.036c0.006,0.009 0.014,0.017 0.023,0.024c0.01,0.006 0.021,0.011 0.034,0.014c0.013,0.003 0.027,0.004 0.041,0.004c0.028,0 0.055,-0.006 0.082,-0.018c0.027,-0.013 0.055,-0.031 0.083,-0.054l0,-0.128c-0.052,0.004 -0.096,0.01 -0.131,0.017c-0.035,0.007 -0.063,0.016 -0.084,0.027c-0.021,0.01 -0.035,0.022 -0.044,0.035c-0.009,0.013 -0.013,0.027 -0.013,0.043Z" style="fill:#9cceff;fill-rule:nonzero;"></path></g><g transform="matrix(24,0,0,24,676.081,211.261)"><path d="M0.206,-0.419l-0.137,0l0,-0.062l0.14,-0.005l0.011,-0.136l0.068,0l0,0.136l0.239,0l0,0.067l-0.239,0l0,0.231c0,0.022 0.002,0.041 0.006,0.057c0.004,0.017 0.011,0.031 0.02,0.042c0.009,0.011 0.022,0.02 0.038,0.025c0.016,0.006 0.036,0.009 0.059,0.009c0.023,0 0.044,-0.002 0.063,-0.006c0.019,-0.004 0.037,-0.009 0.054,-0.016l0.018,0.06c-0.022,0.008 -0.046,0.015 -0.073,0.02c-0.027,0.006 -0.053,0.009 -0.08,0.009c-0.035,0 -0.065,-0.005 -0.089,-0.015c-0.024,-0.009 -0.043,-0.023 -0.058,-0.041c-0.014,-0.017 -0.024,-0.038 -0.031,-0.063c-0.006,-0.025 -0.009,-0.052 -0.009,-0.082l0,-0.23Z" style="fill:#9cceff;fill-rule:nonzero;"></path></g><g transform="matrix(24,0,0,24,690.481,211.261)"><path d="M0.219,-0.072c0,-0.025 0.008,-0.046 0.023,-0.062c0.016,-0.015 0.035,-0.023 0.058,-0.023c0.023,0 0.042,0.008 0.057,0.023c0.016,0.016 0.024,0.037 0.024,0.062c0,0.025 -0.008,0.046 -0.024,0.061c-0.015,0.015 -0.034,0.023 -0.057,0.023c-0.023,0 -0.042,-0.008 -0.057,-0.023c-0.016,-0.015 -0.024,-0.036 -0.024,-0.061Z" style="fill:#9cceff;fill-rule:nonzero;"></path></g><g transform="matrix(24,0,0,24,704.881,211.261)"><path d="M0.09,-0.486l0.308,0l0,0.498c0,0.03 -0.003,0.057 -0.01,0.082c-0.007,0.025 -0.018,0.047 -0.034,0.065c-0.015,0.019 -0.036,0.033 -0.062,0.043c-0.026,0.01 -0.059,0.015 -0.098,0.015c-0.025,0 -0.05,-0.003 -0.074,-0.01c-0.024,-0.006 -0.046,-0.014 -0.065,-0.023l0.027,-0.061c0.017,0.009 0.036,0.015 0.055,0.02c0.019,0.005 0.037,0.007 0.056,0.007c0.024,0 0.044,-0.003 0.06,-0.009c0.016,-0.006 0.029,-0.015 0.038,-0.026c0.009,-0.011 0.016,-0.025 0.02,-0.042c0.003,-0.016 0.005,-0.034 0.005,-0.055l0,-0.437l-0.226,0l0,-0.067Zm0.258,-0.1c-0.019,0 -0.035,-0.006 -0.047,-0.017c-0.013,-0.011 -0.019,-0.027 -0.019,-0.046c0,-0.019 0.006,-0.035 0.019,-0.046c0.012,-0.012 0.028,-0.018 0.047,-0.018c0.019,0 0.034,0.006 0.047,0.018c0.013,0.011 0.019,0.027 0.019,0.046c0,0.019 -0.006,0.035 -0.019,0.046c-0.013,0.011 -0.028,0.017 -0.047,0.017Z" style="fill:#9cceff;fill-rule:nonzero;"></path></g><g transform="matrix(24,0,0,24,719.281,211.261)"><path d="M0.175,0.041l0,0.164l-0.082,0l0,-0.691l0.068,0l0.007,0.062l0.003,0c0.023,-0.021 0.049,-0.039 0.078,-0.053c0.03,-0.014 0.06,-0.021 0.09,-0.021c0.033,0 0.061,0.006 0.086,0.018c0.025,0.011 0.046,0.028 0.063,0.05c0.017,0.021 0.03,0.047 0.039,0.078c0.009,0.03 0.013,0.064 0.013,0.102c0,0.041 -0.006,0.078 -0.018,0.11c-0.012,0.033 -0.028,0.06 -0.049,0.083c-0.02,0.023 -0.043,0.04 -0.07,0.052c-0.027,0.011 -0.055,0.017 -0.084,0.017c-0.023,0 -0.047,-0.005 -0.074,-0.016c-0.026,-0.011 -0.05,-0.027 -0.072,-0.047l0.002,0.092Zm0,-0.155c0.023,0.021 0.047,0.035 0.07,0.044c0.023,0.009 0.043,0.013 0.06,0.013c0.044,0 0.08,-0.017 0.108,-0.051c0.028,-0.034 0.042,-0.081 0.042,-0.142c0,-0.027 -0.003,-0.051 -0.008,-0.073c-0.005,-0.022 -0.014,-0.041 -0.025,-0.056c-0.011,-0.016 -0.025,-0.028 -0.042,-0.037c-0.017,-0.009 -0.038,-0.013 -0.062,-0.013c-0.021,0 -0.044,0.006 -0.069,0.017c-0.024,0.012 -0.049,0.031 -0.074,0.056l0,0.242Z" style="fill:#9cceff;fill-rule:nonzero;"></path></g><g transform="matrix(24,0,0,24,733.681,211.261)"><path d="M0.143,0.081c0,0.025 0.013,0.046 0.04,0.062c0.027,0.016 0.067,0.024 0.119,0.024c0.028,0 0.053,-0.003 0.076,-0.009c0.023,-0.005 0.042,-0.013 0.058,-0.022c0.016,-0.009 0.028,-0.02 0.036,-0.032c0.009,-0.012 0.013,-0.024 0.013,-0.037c0,-0.023 -0.009,-0.039 -0.028,-0.047c-0.018,-0.008 -0.046,-0.012 -0.083,-0.012l-0.095,0c-0.014,0 -0.027,-0.001 -0.04,-0.002c-0.012,-0.001 -0.023,-0.003 -0.034,-0.006c-0.023,0.013 -0.04,0.026 -0.049,0.039c-0.009,0.014 -0.013,0.028 -0.013,0.042Zm-0.071,0.008c0,-0.019 0.007,-0.038 0.02,-0.057c0.014,-0.019 0.034,-0.036 0.06,-0.051l0,-0.004c-0.013,-0.007 -0.025,-0.017 -0.035,-0.03c-0.01,-0.013 -0.015,-0.029 -0.015,-0.05c0,-0.015 0.005,-0.031 0.015,-0.048c0.01,-0.016 0.024,-0.03 0.043,-0.043l0,-0.004c-0.017,-0.013 -0.031,-0.03 -0.043,-0.051c-0.011,-0.021 -0.017,-0.046 -0.017,-0.075c0,-0.027 0.005,-0.051 0.015,-0.072c0.011,-0.021 0.025,-0.039 0.042,-0.054c0.017,-0.016 0.037,-0.027 0.06,-0.035c0.023,-0.009 0.048,-0.013 0.074,-0.013c0.027,0 0.051,0.004 0.072,0.012l0.201,0l0,0.063l-0.13,0c0.011,0.012 0.022,0.027 0.031,0.044c0.009,0.017 0.014,0.037 0.014,0.058c0,0.026 -0.005,0.049 -0.015,0.07c-0.009,0.021 -0.023,0.038 -0.04,0.052c-0.017,0.015 -0.037,0.026 -0.06,0.034c-0.023,0.007 -0.047,0.011 -0.073,0.011c-0.013,0 -0.026,-0.002 -0.041,-0.005c-0.014,-0.003 -0.028,-0.007 -0.041,-0.013c-0.025,0.016 -0.038,0.035 -0.038,0.056c0,0.019 0.009,0.034 0.026,0.043c0.018,0.009 0.043,0.013 0.075,0.013l0.109,0c0.063,0 0.109,0.009 0.139,0.026c0.031,0.017 0.046,0.047 0.046,0.088c0,0.023 -0.006,0.044 -0.019,0.065c-0.013,0.021 -0.031,0.039 -0.054,0.054c-0.023,0.015 -0.052,0.028 -0.085,0.037c-0.033,0.009 -0.071,0.014 -0.112,0.014c-0.071,0 -0.127,-0.012 -0.166,-0.035c-0.039,-0.023 -0.058,-0.057 -0.058,-0.1Zm0.219,-0.298c0.031,0 0.058,-0.01 0.079,-0.031c0.022,-0.021 0.033,-0.049 0.033,-0.084c0,-0.017 -0.003,-0.032 -0.009,-0.046c-0.006,-0.014 -0.014,-0.026 -0.024,-0.036c-0.01,-0.01 -0.022,-0.018 -0.035,-0.023c-0.014,-0.006 -0.029,-0.009 -0.044,-0.009c-0.015,0 -0.03,0.003 -0.043,0.009c-0.014,0.005 -0.026,0.013 -0.036,0.023c-0.01,0.01 -0.018,0.022 -0.024,0.036c-0.006,0.014 -0.009,0.029 -0.009,0.046c0,0.035 0.011,0.063 0.033,0.084c0.022,0.021 0.048,0.031 0.079,0.031Z" style="fill:#9cceff;fill-rule:nonzero;"></path></g><g transform="matrix(24,0,0,24,748.081,211.261)"><path d="M0.133,-0.577l-0.002,-0.11l0.11,0l-0.002,0.11l-0.025,0.225l-0.056,0l-0.025,-0.225Zm0.229,0l-0.002,-0.11l0.11,0l-0.002,0.11l-0.025,0.225l-0.056,0l-0.025,-0.225Z" style="fill:#9cceff;fill-rule:nonzero;"></path></g><g transform="matrix(24,0,0,24,776.881,211.261)"><path d="M0.008,-0.486l0.084,0l0.059,0.281c0.005,0.023 0.009,0.046 0.013,0.068c0.004,0.022 0.008,0.044 0.011,0.067l0.004,0c0.005,-0.023 0.009,-0.045 0.014,-0.068c0.005,-0.022 0.01,-0.044 0.015,-0.067l0.059,-0.252l0.07,0l0.06,0.252c0.005,0.023 0.01,0.046 0.015,0.068c0.005,0.022 0.01,0.044 0.015,0.067l0.004,0c0.005,-0.023 0.009,-0.045 0.012,-0.067c0.004,-0.022 0.008,-0.045 0.012,-0.068l0.059,-0.281l0.078,0l-0.106,0.486l-0.099,0l-0.058,-0.246c-0.005,-0.023 -0.009,-0.047 -0.013,-0.07c-0.004,-0.023 -0.009,-0.046 -0.014,-0.071l-0.004,0c-0.004,0.021 -0.008,0.043 -0.012,0.066c-0.004,0.023 -0.009,0.048 -0.015,0.076l-0.056,0.245l-0.098,0l-0.109,-0.486Z" style="fill:#db9fff;fill-rule:nonzero;"></path></g><g transform="matrix(24,0,0,24,791.281,211.261)"><path d="M0.09,-0.486l0.308,0l0,0.486l-0.082,0l0,-0.419l-0.226,0l0,-0.067Zm0.258,-0.1c-0.019,0 -0.035,-0.006 -0.047,-0.017c-0.013,-0.011 -0.019,-0.027 -0.019,-0.046c0,-0.019 0.006,-0.035 0.019,-0.046c0.012,-0.012 0.028,-0.018 0.047,-0.018c0.019,0 0.034,0.006 0.047,0.018c0.013,0.011 0.019,0.027 0.019,0.046c0,0.019 -0.006,0.035 -0.019,0.046c-0.013,0.011 -0.028,0.017 -0.047,0.017Z" style="fill:#db9fff;fill-rule:nonzero;"></path></g><g transform="matrix(24,0,0,24,805.681,211.261)"><path d="M0.06,-0.242c0,-0.039 0.006,-0.075 0.019,-0.107c0.012,-0.031 0.028,-0.058 0.049,-0.08c0.02,-0.022 0.043,-0.039 0.07,-0.051c0.027,-0.012 0.054,-0.018 0.083,-0.018c0.03,0 0.056,0.006 0.079,0.017c0.023,0.011 0.045,0.027 0.068,0.046l-0.003,-0.09l0,-0.187l0.082,0l0,0.712l-0.068,0l-0.007,-0.064l-0.003,0c-0.02,0.021 -0.044,0.039 -0.072,0.054c-0.027,0.015 -0.056,0.022 -0.086,0.022c-0.032,0 -0.061,-0.006 -0.086,-0.017c-0.026,-0.011 -0.048,-0.028 -0.067,-0.049c-0.019,-0.022 -0.033,-0.049 -0.043,-0.08c-0.01,-0.031 -0.015,-0.067 -0.015,-0.108Zm0.085,-0.001c0,0.059 0.013,0.104 0.038,0.137c0.025,0.033 0.06,0.049 0.105,0.049c0.048,0 0.094,-0.024 0.137,-0.073l0,-0.242c-0.022,-0.021 -0.043,-0.035 -0.064,-0.044c-0.021,-0.009 -0.043,-0.013 -0.064,-0.013c-0.021,0 -0.041,0.004 -0.059,0.013c-0.019,0.009 -0.035,0.022 -0.048,0.038c-0.014,0.017 -0.025,0.036 -0.033,0.059c-0.008,0.023 -0.012,0.048 -0.012,0.076Z" style="fill:#db9fff;fill-rule:nonzero;"></path></g><g transform="matrix(24,0,0,24,820.081,211.261)"><path d="M0.206,-0.419l-0.137,0l0,-0.062l0.14,-0.005l0.011,-0.136l0.068,0l0,0.136l0.239,0l0,0.067l-0.239,0l0,0.231c0,0.022 0.002,0.041 0.006,0.057c0.004,0.017 0.011,0.031 0.02,0.042c0.009,0.011 0.022,0.02 0.038,0.025c0.016,0.006 0.036,0.009 0.059,0.009c0.023,0 0.044,-0.002 0.063,-0.006c0.019,-0.004 0.037,-0.009 0.054,-0.016l0.018,0.06c-0.022,0.008 -0.046,0.015 -0.073,0.02c-0.027,0.006 -0.053,0.009 -0.08,0.009c-0.035,0 -0.065,-0.005 -0.089,-0.015c-0.024,-0.009 -0.043,-0.023 -0.058,-0.041c-0.014,-0.017 -0.024,-0.038 -0.031,-0.063c-0.006,-0.025 -0.009,-0.052 -0.009,-0.082l0,-0.23Z" style="fill:#db9fff;fill-rule:nonzero;"></path></g><g transform="matrix(24,0,0,24,834.481,211.261)"><path d="M0.093,-0.712l0.082,0l0,0.194l-0.004,0.115c0.026,-0.027 0.054,-0.05 0.083,-0.068c0.029,-0.018 0.063,-0.027 0.101,-0.027c0.058,0 0.101,0.017 0.128,0.05c0.026,0.033 0.04,0.081 0.04,0.146l0,0.302l-0.082,0l0,-0.291c0,-0.046 -0.009,-0.08 -0.026,-0.102c-0.017,-0.023 -0.046,-0.034 -0.086,-0.034c-0.015,0 -0.028,0.002 -0.04,0.006c-0.013,0.003 -0.025,0.009 -0.037,0.016c-0.012,0.007 -0.024,0.017 -0.037,0.028c-0.013,0.011 -0.026,0.023 -0.04,0.038l0,0.339l-0.082,0l0,-0.712Z" style="fill:#db9fff;fill-rule:nonzero;"></path></g><g transform="matrix(24,0,0,24,848.881,211.261)"><path d="M0.085,-0.468l0.43,0l0,0.062l-0.43,0l0,-0.062Zm0,0.213l0.43,0l0,0.062l-0.43,0l0,-0.062Z" style="fill:#fff;fill-rule:nonzero;"></path></g><g transform="matrix(24,0,0,24,863.281,211.261)"><path d="M0.133,-0.577l-0.002,-0.11l0.11,0l-0.002,0.11l-0.025,0.225l-0.056,0l-0.025,-0.225Zm0.229,0l-0.002,-0.11l0.11,0l-0.002,0.11l-0.025,0.225l-0.056,0l-0.025,-0.225Z" style="fill:#9cceff;fill-rule:nonzero;"></path></g><g transform="matrix(24,0,0,24,877.681,211.261)"><path d="M0.321,-0.053c0.019,0 0.036,-0.003 0.053,-0.01c0.017,-0.007 0.031,-0.016 0.043,-0.028c0.012,-0.013 0.022,-0.028 0.029,-0.045c0.006,-0.016 0.01,-0.036 0.01,-0.057c0,-0.044 -0.012,-0.078 -0.035,-0.1c-0.023,-0.023 -0.057,-0.035 -0.101,-0.035c-0.025,0 -0.052,0.007 -0.08,0.02c-0.028,0.013 -0.056,0.035 -0.083,0.066c0.006,0.062 0.023,0.109 0.051,0.141c0.029,0.032 0.066,0.048 0.113,0.048Zm0.155,-0.478c-0.017,-0.015 -0.036,-0.027 -0.058,-0.036c-0.022,-0.009 -0.045,-0.014 -0.069,-0.014c-0.025,0 -0.05,0.005 -0.073,0.014c-0.023,0.009 -0.044,0.025 -0.061,0.046c-0.018,0.021 -0.032,0.05 -0.043,0.085c-0.011,0.035 -0.017,0.078 -0.018,0.129c0.025,-0.025 0.054,-0.046 0.086,-0.061c0.031,-0.015 0.063,-0.022 0.095,-0.022c0.029,0 0.056,0.004 0.081,0.013c0.024,0.008 0.045,0.02 0.063,0.036c0.017,0.017 0.031,0.037 0.04,0.062c0.01,0.025 0.015,0.053 0.015,0.086c0,0.031 -0.006,0.058 -0.018,0.083c-0.011,0.025 -0.027,0.047 -0.046,0.065c-0.019,0.018 -0.042,0.032 -0.068,0.042c-0.025,0.01 -0.052,0.015 -0.081,0.015c-0.035,0 -0.067,-0.006 -0.097,-0.019c-0.029,-0.013 -0.055,-0.032 -0.077,-0.058c-0.022,-0.025 -0.039,-0.057 -0.052,-0.096c-0.012,-0.038 -0.018,-0.083 -0.018,-0.134c0,-0.064 0.007,-0.119 0.022,-0.164c0.015,-0.044 0.034,-0.081 0.059,-0.11c0.025,-0.028 0.053,-0.049 0.085,-0.062c0.033,-0.013 0.066,-0.019 0.101,-0.019c0.039,0 0.074,0.006 0.103,0.019c0.029,0.013 0.054,0.03 0.075,0.049l-0.046,0.051Z" style="fill:#9cceff;fill-rule:nonzero;"></path></g><g transform="matrix(24,0,0,24,892.081,211.261)"><path d="M0.368,-0.242l0,-0.198c0.001,-0.017 0.001,-0.036 0.002,-0.056c0.001,-0.021 0.002,-0.04 0.003,-0.057l-0.005,0c-0.01,0.015 -0.021,0.031 -0.032,0.046c-0.011,0.016 -0.022,0.032 -0.033,0.047l-0.173,0.218l0.238,0Zm0.177,0.066l-0.099,0l0,0.176l-0.078,0l0,-0.176l-0.329,0l0,-0.055l0.319,-0.407l0.088,0l0,0.396l0.099,0l0,0.066Z" style="fill:#9cceff;fill-rule:nonzero;"></path></g><g transform="matrix(24,0,0,24,906.481,211.261)"><path d="M0.3,0.012c-0.071,0 -0.127,-0.029 -0.168,-0.086c-0.041,-0.058 -0.061,-0.14 -0.061,-0.247c0,-0.107 0.02,-0.189 0.061,-0.245c0.041,-0.056 0.097,-0.084 0.168,-0.084c0.071,0 0.127,0.028 0.168,0.084c0.041,0.056 0.061,0.138 0.061,0.245c0,0.107 -0.02,0.189 -0.061,0.247c-0.041,0.057 -0.097,0.086 -0.168,0.086Zm0,-0.596c-0.022,0 -0.042,0.005 -0.061,0.015c-0.019,0.01 -0.035,0.026 -0.048,0.048c-0.014,0.021 -0.025,0.049 -0.032,0.082c-0.007,0.032 -0.011,0.072 -0.011,0.118c0,0.091 0.014,0.159 0.043,0.202c0.028,0.043 0.064,0.065 0.109,0.065c0.045,0 0.081,-0.022 0.11,-0.065c0.028,-0.043 0.042,-0.111 0.042,-0.202c0,-0.046 -0.004,-0.086 -0.011,-0.118c-0.007,-0.033 -0.018,-0.061 -0.031,-0.082c-0.014,-0.022 -0.03,-0.038 -0.049,-0.048c-0.019,-0.01 -0.039,-0.015 -0.061,-0.015Zm0,0.323c-0.017,0 -0.031,-0.006 -0.043,-0.017c-0.013,-0.012 -0.019,-0.029 -0.019,-0.05c0,-0.021 0.006,-0.037 0.019,-0.048c0.012,-0.012 0.026,-0.018 0.043,-0.018c0.017,0 0.031,0.006 0.044,0.018c0.012,0.011 0.018,0.027 0.018,0.048c0,0.021 -0.006,0.038 -0.018,0.05c-0.013,0.011 -0.027,0.017 -0.044,0.017Z" style="fill:#9cceff;fill-rule:nonzero;"></path></g><g transform="matrix(24,0,0,24,920.881,211.261)"><path d="M0.133,-0.577l-0.002,-0.11l0.11,0l-0.002,0.11l-0.025,0.225l-0.056,0l-0.025,-0.225Zm0.229,0l-0.002,-0.11l0.11,0l-0.002,0.11l-0.025,0.225l-0.056,0l-0.025,-0.225Z" style="fill:#9cceff;fill-rule:nonzero;"></path></g><g transform="matrix(24,0,0,24,949.681,211.261)"><path d="M0.093,-0.712l0.082,0l0,0.194l-0.004,0.115c0.026,-0.027 0.054,-0.05 0.083,-0.068c0.029,-0.018 0.063,-0.027 0.101,-0.027c0.058,0 0.101,0.017 0.128,0.05c0.026,0.033 0.04,0.081 0.04,0.146l0,0.302l-0.082,0l0,-0.291c0,-0.046 -0.009,-0.08 -0.026,-0.102c-0.017,-0.023 -0.046,-0.034 -0.086,-0.034c-0.015,0 -0.028,0.002 -0.04,0.006c-0.013,0.003 -0.025,0.009 -0.037,0.016c-0.012,0.007 -0.024,0.017 -0.037,0.028c-0.013,0.011 -0.026,0.023 -0.04,0.038l0,0.339l-0.082,0l0,-0.712Z" style="fill:#db9fff;fill-rule:nonzero;"></path></g><g transform="matrix(24,0,0,24,964.081,211.261)"><path d="M0.069,-0.242c0,-0.04 0.007,-0.076 0.021,-0.108c0.014,-0.031 0.032,-0.058 0.055,-0.08c0.023,-0.022 0.05,-0.039 0.079,-0.05c0.03,-0.012 0.061,-0.018 0.092,-0.018c0.035,0 0.066,0.006 0.093,0.017c0.027,0.011 0.05,0.026 0.07,0.046c0.019,0.02 0.033,0.044 0.043,0.072c0.01,0.028 0.015,0.059 0.015,0.093c0,0.009 0,0.017 -0.001,0.026c0,0.008 -0.001,0.015 -0.002,0.021l-0.38,0c0.001,0.026 0.006,0.049 0.015,0.07c0.01,0.021 0.023,0.038 0.039,0.053c0.017,0.015 0.036,0.026 0.058,0.034c0.023,0.008 0.047,0.012 0.074,0.012c0.029,0 0.055,-0.004 0.078,-0.012c0.024,-0.008 0.047,-0.019 0.07,-0.033l0.029,0.054c-0.024,0.015 -0.051,0.029 -0.082,0.04c-0.031,0.011 -0.066,0.017 -0.105,0.017c-0.036,0 -0.07,-0.006 -0.102,-0.017c-0.031,-0.012 -0.059,-0.029 -0.083,-0.05c-0.023,-0.022 -0.042,-0.049 -0.056,-0.08c-0.013,-0.031 -0.02,-0.067 -0.02,-0.107Zm0.392,-0.04c0,-0.049 -0.013,-0.086 -0.038,-0.112c-0.025,-0.026 -0.061,-0.039 -0.106,-0.039c-0.02,0 -0.039,0.003 -0.058,0.01c-0.018,0.007 -0.034,0.016 -0.049,0.029c-0.015,0.013 -0.027,0.029 -0.037,0.048c-0.01,0.019 -0.017,0.04 -0.02,0.064l0.308,0Z" style="fill:#db9fff;fill-rule:nonzero;"></path></g><g transform="matrix(24,0,0,24,978.481,211.261)"><path d="M0.09,-0.486l0.308,0l0,0.486l-0.082,0l0,-0.419l-0.226,0l0,-0.067Zm0.258,-0.1c-0.019,0 -0.035,-0.006 -0.047,-0.017c-0.013,-0.011 -0.019,-0.027 -0.019,-0.046c0,-0.019 0.006,-0.035 0.019,-0.046c0.012,-0.012 0.028,-0.018 0.047,-0.018c0.019,0 0.034,0.006 0.047,0.018c0.013,0.011 0.019,0.027 0.019,0.046c0,0.019 -0.006,0.035 -0.019,0.046c-0.013,0.011 -0.028,0.017 -0.047,0.017Z" style="fill:#db9fff;fill-rule:nonzero;"></path></g><g transform="matrix(24,0,0,24,992.881,211.261)"><path d="M0.143,0.081c0,0.025 0.013,0.046 0.04,0.062c0.027,0.016 0.067,0.024 0.119,0.024c0.028,0 0.053,-0.003 0.076,-0.009c0.023,-0.005 0.042,-0.013 0.058,-0.022c0.016,-0.009 0.028,-0.02 0.036,-0.032c0.009,-0.012 0.013,-0.024 0.013,-0.037c0,-0.023 -0.009,-0.039 -0.028,-0.047c-0.018,-0.008 -0.046,-0.012 -0.083,-0.012l-0.095,0c-0.014,0 -0.027,-0.001 -0.04,-0.002c-0.012,-0.001 -0.023,-0.003 -0.034,-0.006c-0.023,0.013 -0.04,0.026 -0.049,0.039c-0.009,0.014 -0.013,0.028 -0.013,0.042Zm-0.071,0.008c0,-0.019 0.007,-0.038 0.02,-0.057c0.014,-0.019 0.034,-0.036 0.06,-0.051l0,-0.004c-0.013,-0.007 -0.025,-0.017 -0.035,-0.03c-0.01,-0.013 -0.015,-0.029 -0.015,-0.05c0,-0.015 0.005,-0.031 0.015,-0.048c0.01,-0.016 0.024,-0.03 0.043,-0.043l0,-0.004c-0.017,-0.013 -0.031,-0.03 -0.043,-0.051c-0.011,-0.021 -0.017,-0.046 -0.017,-0.075c0,-0.027 0.005,-0.051 0.015,-0.072c0.011,-0.021 0.025,-0.039 0.042,-0.054c0.017,-0.016 0.037,-0.027 0.06,-0.035c0.023,-0.009 0.048,-0.013 0.074,-0.013c0.027,0 0.051,0.004 0.072,0.012l0.201,0l0,0.063l-0.13,0c0.011,0.012 0.022,0.027 0.031,0.044c0.009,0.017 0.014,0.037 0.014,0.058c0,0.026 -0.005,0.049 -0.015,0.07c-0.009,0.021 -0.023,0.038 -0.04,0.052c-0.017,0.015 -0.037,0.026 -0.06,0.034c-0.023,0.007 -0.047,0.011 -0.073,0.011c-0.013,0 -0.026,-0.002 -0.041,-0.005c-0.014,-0.003 -0.028,-0.007 -0.041,-0.013c-0.025,0.016 -0.038,0.035 -0.038,0.056c0,0.019 0.009,0.034 0.026,0.043c0.018,0.009 0.043,0.013 0.075,0.013l0.109,0c0.063,0 0.109,0.009 0.139,0.026c0.031,0.017 0.046,0.047 0.046,0.088c0,0.023 -0.006,0.044 -0.019,0.065c-0.013,0.021 -0.031,0.039 -0.054,0.054c-0.023,0.015 -0.052,0.028 -0.085,0.037c-0.033,0.009 -0.071,0.014 -0.112,0.014c-0.071,0 -0.127,-0.012 -0.166,-0.035c-0.039,-0.023 -0.058,-0.057 -0.058,-0.1Zm0.219,-0.298c0.031,0 0.058,-0.01 0.079,-0.031c0.022,-0.021 0.033,-0.049 0.033,-0.084c0,-0.017 -0.003,-0.032 -0.009,-0.046c-0.006,-0.014 -0.014,-0.026 -0.024,-0.036c-0.01,-0.01 -0.022,-0.018 -0.035,-0.023c-0.014,-0.006 -0.029,-0.009 -0.044,-0.009c-0.015,0 -0.03,0.003 -0.043,0.009c-0.014,0.005 -0.026,0.013 -0.036,0.023c-0.01,0.01 -0.018,0.022 -0.024,0.036c-0.006,0.014 -0.009,0.029 -0.009,0.046c0,0.035 0.011,0.063 0.033,0.084c0.022,0.021 0.048,0.031 0.079,0.031Z" style="fill:#db9fff;fill-rule:nonzero;"></path></g><g transform="matrix(24,0,0,24,1007.28,211.261)"><path d="M0.093,-0.712l0.082,0l0,0.194l-0.004,0.115c0.026,-0.027 0.054,-0.05 0.083,-0.068c0.029,-0.018 0.063,-0.027 0.101,-0.027c0.058,0 0.101,0.017 0.128,0.05c0.026,0.033 0.04,0.081 0.04,0.146l0,0.302l-0.082,0l0,-0.291c0,-0.046 -0.009,-0.08 -0.026,-0.102c-0.017,-0.023 -0.046,-0.034 -0.086,-0.034c-0.015,0 -0.028,0.002 -0.04,0.006c-0.013,0.003 -0.025,0.009 -0.037,0.016c-0.012,0.007 -0.024,0.017 -0.037,0.028c-0.013,0.011 -0.026,0.023 -0.04,0.038l0,0.339l-0.082,0l0,-0.712Z" style="fill:#db9fff;fill-rule:nonzero;"></path></g><g transform="matrix(24,0,0,24,1021.68,211.261)"><path d="M0.206,-0.419l-0.137,0l0,-0.062l0.14,-0.005l0.011,-0.136l0.068,0l0,0.136l0.239,0l0,0.067l-0.239,0l0,0.231c0,0.022 0.002,0.041 0.006,0.057c0.004,0.017 0.011,0.031 0.02,0.042c0.009,0.011 0.022,0.02 0.038,0.025c0.016,0.006 0.036,0.009 0.059,0.009c0.023,0 0.044,-0.002 0.063,-0.006c0.019,-0.004 0.037,-0.009 0.054,-0.016l0.018,0.06c-0.022,0.008 -0.046,0.015 -0.073,0.02c-0.027,0.006 -0.053,0.009 -0.08,0.009c-0.035,0 -0.065,-0.005 -0.089,-0.015c-0.024,-0.009 -0.043,-0.023 -0.058,-0.041c-0.014,-0.017 -0.024,-0.038 -0.031,-0.063c-0.006,-0.025 -0.009,-0.052 -0.009,-0.082l0,-0.23Z" style="fill:#db9fff;fill-rule:nonzero;"></path></g><g transform="matrix(24,0,0,24,1036.08,211.261)"><path d="M0.085,-0.468l0.43,0l0,0.062l-0.43,0l0,-0.062Zm0,0.213l0.43,0l0,0.062l-0.43,0l0,-0.062Z" style="fill:#fff;fill-rule:nonzero;"></path></g><g transform="matrix(24,0,0,24,1050.48,211.261)"><path d="M0.133,-0.577l-0.002,-0.11l0.11,0l-0.002,0.11l-0.025,0.225l-0.056,0l-0.025,-0.225Zm0.229,0l-0.002,-0.11l0.11,0l-0.002,0.11l-0.025,0.225l-0.056,0l-0.025,-0.225Z" style="fill:#9cceff;fill-rule:nonzero;"></path></g><g transform="matrix(24,0,0,24,1064.88,211.261)"><path d="M0.368,-0.242l0,-0.198c0.001,-0.017 0.001,-0.036 0.002,-0.056c0.001,-0.021 0.002,-0.04 0.003,-0.057l-0.005,0c-0.01,0.015 -0.021,0.031 -0.032,0.046c-0.011,0.016 -0.022,0.032 -0.033,0.047l-0.173,0.218l0.238,0Zm0.177,0.066l-0.099,0l0,0.176l-0.078,0l0,-0.176l-0.329,0l0,-0.055l0.319,-0.407l0.088,0l0,0.396l0.099,0l0,0.066Z" style="fill:#9cceff;fill-rule:nonzero;"></path></g><g transform="matrix(24,0,0,24,1079.28,211.261)"><path d="M0.143,-0.171c0,0.036 0.014,0.065 0.043,0.088c0.029,0.023 0.069,0.034 0.118,0.034c0.048,0 0.085,-0.01 0.11,-0.031c0.025,-0.021 0.038,-0.048 0.038,-0.081c0,-0.022 -0.005,-0.04 -0.016,-0.055c-0.01,-0.015 -0.024,-0.028 -0.042,-0.039c-0.018,-0.011 -0.039,-0.02 -0.064,-0.029c-0.024,-0.008 -0.05,-0.017 -0.078,-0.026c-0.031,0.017 -0.057,0.037 -0.078,0.059c-0.021,0.021 -0.031,0.048 -0.031,0.08Zm0.209,-0.177c0.053,-0.039 0.08,-0.081 0.08,-0.128c0,-0.032 -0.011,-0.059 -0.033,-0.08c-0.022,-0.022 -0.054,-0.033 -0.096,-0.033c-0.036,0 -0.065,0.009 -0.087,0.028c-0.022,0.019 -0.033,0.044 -0.033,0.075c0,0.019 0.004,0.036 0.013,0.05c0.009,0.013 0.021,0.025 0.036,0.036c0.015,0.011 0.033,0.02 0.053,0.029c0.021,0.008 0.043,0.016 0.067,0.023Zm-0.284,0.185c0,-0.022 0.004,-0.042 0.012,-0.059c0.008,-0.017 0.018,-0.033 0.031,-0.047c0.013,-0.014 0.027,-0.026 0.043,-0.037c0.017,-0.01 0.034,-0.019 0.051,-0.027l0,-0.004c-0.027,-0.017 -0.05,-0.037 -0.069,-0.062c-0.019,-0.024 -0.028,-0.053 -0.028,-0.087c0,-0.025 0.005,-0.047 0.014,-0.067c0.01,-0.02 0.024,-0.037 0.041,-0.052c0.018,-0.014 0.039,-0.025 0.063,-0.033c0.024,-0.008 0.05,-0.012 0.079,-0.012c0.031,0 0.059,0.004 0.084,0.012c0.024,0.009 0.044,0.02 0.062,0.035c0.017,0.015 0.029,0.033 0.038,0.054c0.01,0.021 0.014,0.044 0.014,0.069c0,0.03 -0.009,0.058 -0.028,0.084c-0.019,0.027 -0.042,0.049 -0.069,0.068l0,0.004c0.017,0.009 0.034,0.018 0.049,0.028c0.015,0.01 0.029,0.021 0.04,0.034c0.011,0.013 0.02,0.027 0.027,0.044c0.006,0.017 0.009,0.037 0.009,0.06c0,0.024 -0.005,0.046 -0.015,0.067c-0.011,0.021 -0.026,0.039 -0.045,0.054c-0.019,0.015 -0.043,0.027 -0.071,0.036c-0.029,0.009 -0.061,0.013 -0.098,0.013c-0.036,0 -0.068,-0.004 -0.097,-0.013c-0.029,-0.009 -0.054,-0.021 -0.074,-0.037c-0.02,-0.015 -0.035,-0.034 -0.046,-0.055c-0.011,-0.021 -0.017,-0.045 -0.017,-0.07Z" style="fill:#9cceff;fill-rule:nonzero;"></path></g><g transform="matrix(24,0,0,24,1093.68,211.261)"><path d="M0.3,0.012c-0.071,0 -0.127,-0.029 -0.168,-0.086c-0.041,-0.058 -0.061,-0.14 -0.061,-0.247c0,-0.107 0.02,-0.189 0.061,-0.245c0.041,-0.056 0.097,-0.084 0.168,-0.084c0.071,0 0.127,0.028 0.168,0.084c0.041,0.056 0.061,0.138 0.061,0.245c0,0.107 -0.02,0.189 -0.061,0.247c-0.041,0.057 -0.097,0.086 -0.168,0.086Zm0,-0.596c-0.022,0 -0.042,0.005 -0.061,0.015c-0.019,0.01 -0.035,0.026 -0.048,0.048c-0.014,0.021 -0.025,0.049 -0.032,0.082c-0.007,0.032 -0.011,0.072 -0.011,0.118c0,0.091 0.014,0.159 0.043,0.202c0.028,0.043 0.064,0.065 0.109,0.065c0.045,0 0.081,-0.022 0.11,-0.065c0.028,-0.043 0.042,-0.111 0.042,-0.202c0,-0.046 -0.004,-0.086 -0.011,-0.118c-0.007,-0.033 -0.018,-0.061 -0.031,-0.082c-0.014,-0.022 -0.03,-0.038 -0.049,-0.048c-0.019,-0.01 -0.039,-0.015 -0.061,-0.015Zm0,0.323c-0.017,0 -0.031,-0.006 -0.043,-0.017c-0.013,-0.012 -0.019,-0.029 -0.019,-0.05c0,-0.021 0.006,-0.037 0.019,-0.048c0.012,-0.012 0.026,-0.018 0.043,-0.018c0.017,0 0.031,0.006 0.044,0.018c0.012,0.011 0.018,0.027 0.018,0.048c0,0.021 -0.006,0.038 -0.018,0.05c-0.013,0.011 -0.027,0.017 -0.044,0.017Z" style="fill:#9cceff;fill-rule:nonzero;"></path></g><g transform="matrix(24,0,0,24,1108.08,211.261)"><path d="M0.133,-0.577l-0.002,-0.11l0.11,0l-0.002,0.11l-0.025,0.225l-0.056,0l-0.025,-0.225Zm0.229,0l-0.002,-0.11l0.11,0l-0.002,0.11l-0.025,0.225l-0.056,0l-0.025,-0.225Z" style="fill:#9cceff;fill-rule:nonzero;"></path></g><g transform="matrix(24,0,0,24,1122.48,211.261)"><path d="M0.48,-0.301l-0.373,0.253l0,-0.079l0.301,-0.203l0,-0.004l-0.301,-0.203l0,-0.079l0.373,0.253l0,0.062Z" style="fill:#fff;fill-rule:nonzero;"></path></g></g></svg> 